<svg width="21" height="21" viewBox="0 0 21 21" fill="none" xmlns="http://www.w3.org/2000/svg">
<path d="M7.33329 4.99996C6.04463 4.99996 4.99996 6.04463 4.99996 7.33329C4.99996 8.62196 6.04463 9.66663 7.33329 9.66663C8.62196 9.66663 9.66663 8.62196 9.66663 7.33329C9.66663 6.04463 8.62196 4.99996 7.33329 4.99996Z" stroke="#F4F1DE" stroke-width="2"/>
<path d="M18.1425 9.48559C18.4267 9.01201 19.0409 8.85845 19.5145 9.1426C19.9881 9.42674 20.1416 10.041 19.8575 10.5146L18.1425 9.48559ZM2 13.5001C2.14142 12.5101 2.14145 12.5101 2.1415 12.5101C2.14153 12.5102 2.14159 12.5102 2.14166 12.5102C2.14179 12.5102 2.14198 12.5102 2.14222 12.5103C2.14269 12.5103 2.14338 12.5104 2.14428 12.5105C2.14608 12.5108 2.14871 12.5112 2.15217 12.5117C2.15908 12.5127 2.16928 12.5141 2.18263 12.5161C2.20932 12.5199 2.2486 12.5256 2.29938 12.533C2.40094 12.5478 2.54849 12.5694 2.73325 12.5969C3.10268 12.652 3.62126 12.7305 4.21846 12.8248C5.40988 13.0129 6.92585 13.2655 8.19612 13.5195L7.80388 15.4807C6.57415 15.2347 5.09012 14.9872 3.90654 14.8004C3.31624 14.7071 2.80357 14.6295 2.43863 14.5751C2.25619 14.5479 2.11078 14.5266 2.01116 14.5121C1.96136 14.5049 1.92301 14.4993 1.89721 14.4956C1.88431 14.4937 1.87455 14.4923 1.86806 14.4914C1.86482 14.4909 1.8624 14.4906 1.86081 14.4904C1.86002 14.4902 1.85943 14.4902 1.85906 14.4901C1.85888 14.4901 1.85874 14.4901 1.85866 14.49C1.85862 14.49 1.8586 14.49 1.85858 14.49C1.85857 14.49 1.85858 14.49 2 13.5001ZM8.19612 13.5195C8.39548 13.5594 8.62169 13.5162 8.99765 13.194C9.40632 12.8437 9.77894 12.3533 10.2943 11.7349C10.757 11.1796 11.3518 10.5024 12.0984 10.1028C12.9333 9.65595 13.901 9.58254 14.9472 10.1057L14.0528 11.8945C13.599 11.6676 13.3167 11.7192 13.0422 11.8661C12.6795 12.0603 12.3055 12.4456 11.8307 13.0153C11.4086 13.5219 10.8749 14.219 10.2992 14.7125C9.69081 15.234 8.85452 15.6908 7.80388 15.4807L8.19612 13.5195ZM14.9472 10.1057C16.1327 10.6984 16.9002 10.4735 17.3711 10.1988C17.6323 10.0465 17.8341 9.85729 17.9713 9.70291C18.0389 9.62694 18.0875 9.56304 18.1168 9.5222C18.1313 9.50189 18.1408 9.48769 18.1452 9.48101C18.1473 9.47768 18.1482 9.47627 18.1478 9.47697C18.1475 9.47731 18.147 9.47819 18.1461 9.47962C18.1457 9.48033 18.1452 9.48119 18.1446 9.48218C18.1443 9.48268 18.1439 9.48321 18.1436 9.48378C18.1434 9.48406 18.1432 9.48452 18.1431 9.48466C18.1428 9.48512 18.1425 9.48559 19 10.0001C19.8575 10.5146 19.8572 10.5151 19.8569 10.5156C19.8568 10.5158 19.8565 10.5163 19.8563 10.5166C19.8558 10.5173 19.8554 10.5181 19.8549 10.5189C19.8539 10.5205 19.8528 10.5223 19.8517 10.5242C19.8493 10.528 19.8466 10.5324 19.8434 10.5375C19.8372 10.5475 19.8292 10.56 19.8197 10.5746C19.8006 10.6038 19.7749 10.6418 19.7426 10.687C19.6781 10.777 19.5861 10.8967 19.4662 11.0316C19.2284 11.2991 18.8677 11.6412 18.3789 11.9264C17.3498 12.5267 15.8673 12.8018 14.0528 11.8945L14.9472 10.1057Z" fill="#F4F1DE"/>
<path d="M19.5066 10.1665C19.5066 8.13058 19.3962 6.56279 19.126 5.34681C18.8582 4.14219 18.4471 3.345 17.8876 2.78549C17.3281 2.22597 16.5309 1.81486 15.3263 1.54714C14.1103 1.2769 12.5425 1.1665 10.5066 1.1665C8.47067 1.1665 6.90288 1.2769 5.6869 1.54714C4.48228 1.81486 3.68509 2.22597 3.12557 2.78549C2.56606 3.345 2.15495 4.14219 1.88723 5.34681C1.61699 6.56279 1.50659 8.13058 1.50659 10.1665C1.50659 12.8956 1.70674 14.762 2.20238 16.0597C2.66719 17.2768 3.39421 18.0043 4.61004 18.4694C5.90786 18.966 7.77501 19.1665 10.5066 19.1665C14.5127 19.1665 16.5958 18.7253 17.766 17.6634C18.9071 16.6278 19.4382 14.7538 19.5002 10.9834C19.5045 10.7193 19.5066 10.4471 19.5066 10.1665Z" stroke="#F4F1DE" stroke-width="2" stroke-linecap="round" stroke-linejoin="round"/>
</svg>
