<svg width="27" height="27" viewBox="0 0 27 27" fill="none" xmlns="http://www.w3.org/2000/svg">
<path d="M25.491 22.7019L22.3687 19.5791C23.0826 18.5733 23.3926 17.336 23.2371 16.1124C23.0816 14.8888 22.4721 13.7682 21.5293 12.973C20.5865 12.1777 19.3793 11.7657 18.147 11.8186C16.9147 11.8716 15.7472 12.3857 14.8762 13.2589C14.0051 14.1322 13.4939 15.3008 13.444 16.5333C13.3941 17.7657 13.809 18.9719 14.6067 19.9127C15.4043 20.8535 16.5263 21.4603 17.7503 21.6128C18.9743 21.7652 20.2108 21.4522 21.2149 20.7358L24.3364 23.8569C24.4905 24.0057 24.6968 24.088 24.911 24.0862C25.1252 24.0843 25.33 23.9984 25.4815 23.8469C25.6329 23.6955 25.7188 23.4906 25.7207 23.2765C25.7226 23.0623 25.6402 22.8559 25.4914 22.7019H25.491ZM15.1065 16.7496C15.1065 16.1033 15.2982 15.4716 15.6572 14.9343C16.0162 14.397 16.5265 13.9782 17.1235 13.7309C17.7206 13.4836 18.3775 13.4189 19.0113 13.545C19.6451 13.6711 20.2273 13.9822 20.6843 14.4392C21.1412 14.8961 21.4524 15.4783 21.5785 16.1121C21.7046 16.7459 21.6399 17.4029 21.3926 17.9999C21.1453 18.597 20.7265 19.1073 20.1892 19.4663C19.6518 19.8253 19.0201 20.0169 18.3739 20.0169C17.5076 20.016 16.6771 19.6714 16.0646 19.0589C15.4521 18.4463 15.1075 17.6158 15.1065 16.7496V16.7496Z" fill="#5667FD"/>
<path d="M11.8393 16.7497C11.8372 15.6014 12.1383 14.473 12.7121 13.4784C13.2858 12.4838 14.112 11.6583 15.107 11.0853C16.102 10.5123 17.2307 10.2121 18.3789 10.215C19.5271 10.2179 20.6542 10.5239 21.6463 11.102V7.75952H0.408447V20.0121H12.7207C12.1438 19.0216 11.8396 17.8959 11.8393 16.7497V16.7497Z" fill="#5667FD"/>
<path d="M0.408447 2.04187V6.12607H21.6463V2.04187H0.408447ZM2.85897 4.90081C2.69741 4.90081 2.53949 4.8529 2.40516 4.76315C2.27083 4.67339 2.16613 4.54582 2.10431 4.39656C2.04248 4.2473 2.02631 4.08307 2.05782 3.92461C2.08934 3.76616 2.16714 3.62062 2.28138 3.50638C2.39561 3.39214 2.54116 3.31434 2.69961 3.28283C2.85806 3.25131 3.0223 3.26748 3.17156 3.32931C3.32082 3.39113 3.44839 3.49583 3.53815 3.63016C3.6279 3.76449 3.67581 3.92242 3.67581 4.08397C3.67581 4.30061 3.58975 4.50838 3.43656 4.66156C3.28337 4.81475 3.07561 4.90081 2.85897 4.90081ZM5.30949 4.90081C5.14793 4.90081 4.99001 4.8529 4.85568 4.76315C4.72135 4.67339 4.61665 4.54582 4.55483 4.39656C4.493 4.2473 4.47683 4.08307 4.50834 3.92461C4.53986 3.76616 4.61766 3.62062 4.7319 3.50638C4.84613 3.39214 4.99168 3.31434 5.15013 3.28283C5.30858 3.25131 5.47282 3.26748 5.62208 3.32931C5.77134 3.39113 5.89891 3.49583 5.98867 3.63016C6.07842 3.76449 6.12633 3.92242 6.12633 4.08397C6.12633 4.30061 6.04027 4.50838 5.88708 4.66156C5.7339 4.81475 5.52613 4.90081 5.30949 4.90081ZM7.76001 4.90081C7.59846 4.90081 7.44053 4.8529 7.3062 4.76315C7.17187 4.67339 7.06717 4.54582 7.00535 4.39656C6.94352 4.2473 6.92735 4.08307 6.95887 3.92461C6.99038 3.76616 7.06818 3.62062 7.18242 3.50638C7.29666 3.39214 7.4422 3.31434 7.60065 3.28283C7.75911 3.25131 7.92334 3.26748 8.0726 3.32931C8.22186 3.39113 8.34943 3.49583 8.43919 3.63016C8.52895 3.76449 8.57685 3.92242 8.57685 4.08397C8.57685 4.30061 8.49079 4.50838 8.3376 4.66156C8.18442 4.81475 7.97665 4.90081 7.76001 4.90081Z" fill="#5667FD"/>
</svg>
