<svg width="27" height="27" viewBox="0 0 27 27" fill="none" xmlns="http://www.w3.org/2000/svg">
<path d="M24.505 15.9277H23.6882V4.49194H2.45033V15.9277H1.63349C1.41685 15.9277 1.20908 16.0138 1.0559 16.167C0.90271 16.3201 0.81665 16.5279 0.81665 16.7446C0.81665 16.9612 0.90271 17.169 1.0559 17.3221C1.20908 17.4753 1.41685 17.5614 1.63349 17.5614H11.2314L5.9219 23.5652C5.77567 23.7276 5.69997 23.9416 5.71146 24.1599C5.72295 24.3781 5.82069 24.5829 5.98317 24.7292C6.14565 24.8754 6.35956 24.9511 6.57785 24.9396C6.79614 24.9281 7.00093 24.8304 7.14716 24.6679L12.2524 18.9092V24.913C12.2524 25.1296 12.3385 25.3374 12.4917 25.4905C12.6449 25.6437 12.8526 25.7298 13.0693 25.7298C13.2859 25.7298 13.4937 25.6437 13.6469 25.4905C13.8 25.3374 13.8861 25.1296 13.8861 24.913V18.9092L18.9913 24.6271C19.1376 24.7895 19.3424 24.8873 19.5607 24.8988C19.779 24.9103 19.9929 24.8346 20.1553 24.6883C20.3178 24.5421 20.4156 24.3373 20.4271 24.119C20.4385 23.9007 20.3628 23.6868 20.2166 23.5243L14.9071 17.5614H24.505C24.7217 17.5614 24.9294 17.4753 25.0826 17.3221C25.2358 17.169 25.3219 16.9612 25.3219 16.7446C25.3219 16.5279 25.2358 16.3201 25.0826 16.167C24.9294 16.0138 24.7217 15.9277 24.505 15.9277Z" fill="#364356"/>
<path d="M2.45044 0.407959H23.6883V2.85848H2.45044V0.407959Z" fill="#364356"/>
</svg>
