<svg width="27" height="27" viewBox="0 0 27 27" fill="none" xmlns="http://www.w3.org/2000/svg">
<g clip-path="url(#clip0_316_40)">
<path d="M12.2526 4.3697L3.26733 0.73476V17.48L12.2526 21.4417V4.3697ZM22.8715 0.653076L13.8863 4.3697V21.4417L22.8715 17.3983V0.653076V0.653076Z" fill="#364356"/>
<path d="M25.3221 1.79663C25.1054 1.79663 24.8976 1.88269 24.7445 2.03588C24.5913 2.18907 24.5052 2.39683 24.5052 2.61347V18.5419L13.0694 23.7696L1.63368 18.5419V2.61347C1.63368 2.39683 1.54762 2.18907 1.39443 2.03588C1.24125 1.88269 1.03348 1.79663 0.81684 1.79663C0.600201 1.79663 0.392434 1.88269 0.239247 2.03588C0.0860597 2.18907 0 2.39683 0 2.61347L0 19.0728C0.00259657 19.2294 0.0501792 19.382 0.137076 19.5124C0.223973 19.6427 0.346518 19.7453 0.490104 19.808L12.7427 25.3625L13.0694 25.4442L13.3962 25.3625L25.6488 19.808C25.7924 19.7453 25.9149 19.6427 26.0018 19.5124C26.0887 19.382 26.1363 19.2294 26.1389 19.0728V2.61347C26.1389 2.39683 26.0528 2.18907 25.8996 2.03588C25.7465 1.88269 25.5387 1.79663 25.3221 1.79663V1.79663Z" fill="#364356"/>
</g>
<defs>
<clipPath id="clip0_316_40">
<rect width="26.1389" height="26.1389" fill="white"/>
</clipPath>
</defs>
</svg>
